<svg xmlns="http://www.w3.org/2000/svg" version="1.1" xmlns:xlink="http://www.w3.org/1999/xlink" x="0" y="0" viewBox="0 0 682.667 682.667" style="enable-background:new 0 0 512 512" xml:space="preserve"><g><defs><clipPath id="a" clipPathUnits="userSpaceOnUse"><path d="M0 512h512V0H0Z" fill="#000000" opacity="1" data-original="#000000"/></clipPath></defs><g clip-path="url(#a)" transform="matrix(1.33333 0 0 -1.33333 0 682.667)"><path d="M0 0c0-20.059-16.261-36.32-36.32-36.32S-72.64-20.059-72.64 0s16.261 36.32 36.32 36.32S0 20.059 0 0" style="fill-opacity:1;fill-rule:nonzero;stroke:none" transform="translate(464.12 54.002)" fill="#b2acb6" data-original="#b2acb6"/><path d="M0 0c0-17.649-14.308-31.957-31.957-31.957S-63.914-17.649-63.914 0s14.308 31.957 31.957 31.957S0 17.649 0 0" style="fill-opacity:1;fill-rule:nonzero;stroke:none" transform="translate(86.267 462.36)" fill="#c9c2ca" data-original="#c9c2ca"/><path d="M0 0c-.008 34.536-15.757 65.394-40.462 85.789-4.611 3.807-6.836 9.728-6.093 15.661.454 3.623.659 7.323.595 11.084-.69 41.177-34.046 75.04-75.209 76.317-16.595.514-32.065-4.18-44.903-12.568-1.162-.759-2.712-.316-3.365.909-18.7 35.106-56.127 58.722-98.962 57.459-38.783-1.143-72.578-22.956-90.791-54.676-2.527-4.399-7.31-7.012-12.382-6.917a42.71 42.71 0 0 1-4.969-.199c-20.15-1.985-36.064-18.778-37.058-39.003a41.391 41.391 0 0 1 1.9-14.658c2.25-7.045-1.22-14.686-8.051-17.522-46.284-19.216-78.553-65.391-77.21-118.933 1.636-65.156 57.766-120.846 122.932-121.996 23.161-.409 44.918 5.471 63.675 16.046 1.353.762 3.063.079 3.461-1.421 9.824-36.893 49.673-64.503 97.339-64.503 52.405 0 95.353 33.374 99.346 75.766a2.38 2.38 0 0 0 2.302 2.169C-48.257-109.426.014-59.979 0 0" style="fill-opacity:1;fill-rule:nonzero;stroke:none" transform="translate(504.5 252.755)" fill="#c9c2ca" data-original="#c9c2ca"/><path d="M0 0c-4.611 3.807-6.836 9.728-6.093 15.661.454 3.623.658 7.323.595 11.083-.63 37.578-28.464 69.064-64.609 75.252 14.835-13.936 24.246-33.581 24.609-55.252.063-3.76-.141-7.46-.595-11.083C-46.836 29.728-44.611 23.807-40 20-15.295-.396.454-31.253.462-65.79c.014-59.978-48.257-109.425-107.905-111.195a2.38 2.38 0 0 1-2.302-2.17c-3.993-42.391-46.942-75.765-99.346-75.765-10.515 0-20.651 1.344-30.167 3.835 18.01-14.734 42.8-23.835 70.167-23.835 52.404 0 95.353 33.374 99.346 75.765a2.38 2.38 0 0 0 2.302 2.17c59.648 1.77 107.919 51.217 107.905 111.195C40.454-51.253 24.705-20.396 0 0" style="fill-opacity:1;fill-rule:nonzero;stroke:none" transform="translate(464.038 338.544)" fill="#b2acb6" data-original="#b2acb6"/><path d="M0 0a36.15 36.15 0 0 0 20.5 6.334c20.06 0 36.32-16.261 36.32-36.32s-16.26-36.32-36.32-36.32c-20.059 0-36.319 16.261-36.319 36.32" style="stroke-width:15;stroke-linecap:round;stroke-linejoin:round;stroke-miterlimit:10;stroke-dasharray:none;stroke-opacity:1" transform="translate(407.299 83.988)" fill="none" stroke="#000000" stroke-width="15" stroke-linecap="round" stroke-linejoin="round" stroke-miterlimit="10" stroke-dasharray="none" stroke-opacity="" data-original="#000000"/><path d="M0 0a31.864 31.864 0 0 0 2.085-11.378c0-17.649-14.308-31.957-31.957-31.957s-31.957 14.308-31.957 31.957 14.308 31.957 31.957 31.957c.935 0 1.861-.04 2.775-.119" style="stroke-width:15;stroke-linecap:round;stroke-linejoin:round;stroke-miterlimit:10;stroke-dasharray:none;stroke-opacity:1" transform="translate(84.182 473.739)" fill="none" stroke="#000000" stroke-width="15" stroke-linecap="round" stroke-linejoin="round" stroke-miterlimit="10" stroke-dasharray="none" stroke-opacity="" data-original="#000000"/><path d="M0 0a111.74 111.74 0 0 1-26.995 32.72c-4.611 3.806-6.836 9.728-6.093 15.661.454 3.623.658 7.323.595 11.083-.691 41.178-34.046 75.041-75.209 76.317-16.595.514-32.066-4.179-44.903-12.567-1.163-.759-2.712-.317-3.366.909-18.699 35.106-56.127 58.721-98.962 57.459-38.782-1.143-72.577-22.957-90.791-54.677-2.526-4.399-7.309-7.011-12.381-6.917a42.488 42.488 0 0 1-4.969-.198c-20.151-1.986-36.065-18.778-37.058-39.003a41.385 41.385 0 0 1 1.9-14.658c2.25-7.045-1.22-14.687-8.051-17.523-46.284-19.215-78.553-65.391-77.21-118.932 1.636-65.156 57.765-120.846 122.931-121.996 23.162-.409 44.918 5.471 63.676 16.046 1.353.762 3.063.079 3.461-1.421 9.823-36.893 49.673-64.503 97.339-64.503 52.404 0 95.353 33.374 99.346 75.765a2.377 2.377 0 0 0 2.302 2.169C-34.79-162.495 13.48-113.048 13.467-53.069a111.932 111.932 0 0 1-1.529 18.456" style="stroke-width:15;stroke-linecap:round;stroke-linejoin:round;stroke-miterlimit:10;stroke-dasharray:none;stroke-opacity:1" transform="translate(491.033 305.824)" fill="none" stroke="#000000" stroke-width="15" stroke-linecap="round" stroke-linejoin="round" stroke-miterlimit="10" stroke-dasharray="none" stroke-opacity="" data-original="#000000"/><path d="M0 0c4.975 8.344 7.642 18.223 7.121 28.756-1.249 25.309-21.293 46.185-46.538 48.375-.561.049-1.12.088-1.678.119-5.097.28-9.817 2.854-12.839 6.969-6.687 9.107-17.748 14.802-30.087 13.989-6.201-.409-11.979-2.503-16.875-5.824" style="stroke-width:15;stroke-linecap:round;stroke-linejoin:round;stroke-miterlimit:10;stroke-dasharray:none;stroke-opacity:1" transform="translate(410.005 280.884)" fill="none" stroke="#000000" stroke-width="15" stroke-linecap="round" stroke-linejoin="round" stroke-miterlimit="10" stroke-dasharray="none" stroke-opacity="" data-original="#000000"/><path d="M0 0c-.714-24.685 19.084-44.92 43.607-44.92 3.585 0 7.069.432 10.402 1.248 8.588 2.1 17.766-.096 24.139-6.223 9.632-9.26 22.719-14.954 37.136-14.954 15.638 0 29.711 6.698 39.508 17.382" style="stroke-width:15;stroke-linecap:round;stroke-linejoin:round;stroke-miterlimit:10;stroke-dasharray:none;stroke-opacity:1" transform="translate(58.66 233.573)" fill="none" stroke="#000000" stroke-width="15" stroke-linecap="round" stroke-linejoin="round" stroke-miterlimit="10" stroke-dasharray="none" stroke-opacity="" data-original="#000000"/><path d="M0 0v0" style="stroke-width:15;stroke-linecap:round;stroke-linejoin:round;stroke-miterlimit:10;stroke-dasharray:none;stroke-opacity:1" transform="translate(115.4 273.384)" fill="none" stroke="#000000" stroke-width="15" stroke-linecap="round" stroke-linejoin="round" stroke-miterlimit="10" stroke-dasharray="none" stroke-opacity="" data-original="#000000"/><path d="M0 0v0" style="stroke-width:15;stroke-linecap:round;stroke-linejoin:round;stroke-miterlimit:10;stroke-dasharray:none;stroke-opacity:1" transform="translate(174.052 226.74)" fill="none" stroke="#000000" stroke-width="15" stroke-linecap="round" stroke-linejoin="round" stroke-miterlimit="10" stroke-dasharray="none" stroke-opacity="" data-original="#000000"/><path d="M0 0v0" style="stroke-width:15;stroke-linecap:round;stroke-linejoin:round;stroke-miterlimit:10;stroke-dasharray:none;stroke-opacity:1" transform="translate(200.953 400.798)" fill="none" stroke="#000000" stroke-width="15" stroke-linecap="round" stroke-linejoin="round" stroke-miterlimit="10" stroke-dasharray="none" stroke-opacity="" data-original="#000000"/><path d="M0 0v0" style="stroke-width:15;stroke-linecap:round;stroke-linejoin:round;stroke-miterlimit:10;stroke-dasharray:none;stroke-opacity:1" transform="translate(239.706 423.506)" fill="none" stroke="#000000" stroke-width="15" stroke-linecap="round" stroke-linejoin="round" stroke-miterlimit="10" stroke-dasharray="none" stroke-opacity="" data-original="#000000"/><path d="M0 0v0" style="stroke-width:15;stroke-linecap:round;stroke-linejoin:round;stroke-miterlimit:10;stroke-dasharray:none;stroke-opacity:1" transform="translate(369.306 290.883)" fill="none" stroke="#000000" stroke-width="15" stroke-linecap="round" stroke-linejoin="round" stroke-miterlimit="10" stroke-dasharray="none" stroke-opacity="" data-original="#000000"/><path d="M0 0v0" style="stroke-width:15;stroke-linecap:round;stroke-linejoin:round;stroke-miterlimit:10;stroke-dasharray:none;stroke-opacity:1" transform="translate(442.405 222.207)" fill="none" stroke="#000000" stroke-width="15" stroke-linecap="round" stroke-linejoin="round" stroke-miterlimit="10" stroke-dasharray="none" stroke-opacity="" data-original="#000000"/><path d="M0 0v0" style="stroke-width:15;stroke-linecap:round;stroke-linejoin:round;stroke-miterlimit:10;stroke-dasharray:none;stroke-opacity:1" transform="translate(328.503 299.472)" fill="none" stroke="#000000" stroke-width="15" stroke-linecap="round" stroke-linejoin="round" stroke-miterlimit="10" stroke-dasharray="none" stroke-opacity="" data-original="#000000"/><path d="M0 0v0" style="stroke-width:15;stroke-linecap:round;stroke-linejoin:round;stroke-miterlimit:10;stroke-dasharray:none;stroke-opacity:1" transform="translate(301.608 157.748)" fill="none" stroke="#000000" stroke-width="15" stroke-linecap="round" stroke-linejoin="round" stroke-miterlimit="10" stroke-dasharray="none" stroke-opacity="" data-original="#000000"/><path d="M0 0v0" style="stroke-width:15;stroke-linecap:round;stroke-linejoin:round;stroke-miterlimit:10;stroke-dasharray:none;stroke-opacity:1" transform="translate(334.912 127.402)" fill="none" stroke="#000000" stroke-width="15" stroke-linecap="round" stroke-linejoin="round" stroke-miterlimit="10" stroke-dasharray="none" stroke-opacity="" data-original="#000000"/><path d="M0 0v0" style="stroke-width:15;stroke-linecap:round;stroke-linejoin:round;stroke-miterlimit:10;stroke-dasharray:none;stroke-opacity:1" transform="translate(263.5 134.816)" fill="none" stroke="#000000" stroke-width="15" stroke-linecap="round" stroke-linejoin="round" stroke-miterlimit="10" stroke-dasharray="none" stroke-opacity="" data-original="#000000"/><path d="M0 0v0" style="stroke-width:15;stroke-linecap:round;stroke-linejoin:round;stroke-miterlimit:10;stroke-dasharray:none;stroke-opacity:1" transform="translate(343.503 331.173)" fill="none" stroke="#000000" stroke-width="15" stroke-linecap="round" stroke-linejoin="round" stroke-miterlimit="10" stroke-dasharray="none" stroke-opacity="" data-original="#000000"/></g></g></svg>