<svg xmlns="http://www.w3.org/2000/svg" version="1.1" xmlns:xlink="http://www.w3.org/1999/xlink" x="0" y="0" viewBox="0 0 32 32" style="enable-background:new 0 0 512 512" xml:space="preserve"><g><path fill="#FE724C" d="M28 7H14c0-1.103-.897-2-2-2h-2c-1.103 0-2 .897-2 2H4a1 1 0 1 0 0 2h4c0 1.103.897 2 2 2h2c1.103 0 2-.897 2-2h14a1 1 0 1 0 0-2zM10 9V7h2l.001.996L12 8l.001.004V9zM28 15h-6c0-1.103-.897-2-2-2h-2c-1.103 0-2 .897-2 2H4a1 1 0 1 0 0 2h12c0 1.103.897 2 2 2h2c1.103 0 2-.897 2-2h6a1 1 0 1 0 0-2zm-10 2v-2h2l.001.996L20 16l.001.004V17zM28 23H14c0-1.103-.897-2-2-2h-2c-1.103 0-2 .897-2 2H4a1 1 0 1 0 0 2h4c0 1.103.897 2 2 2h2c1.103 0 2-.897 2-2h14a1 1 0 1 0 0-2zm-18 2v-2h2l.001.996L12 24l.001.004V25z" fill="currentColor" opacity="1" data-original="#FE724C"></path></g></svg>